<?xml version="1.0" encoding="utf-8"?>
<!-- Generator: Adobe Illustrator 19.1.0, SVG Export Plug-In . SVG Version: 6.00 Build 0)  -->
<svg version="1.1" id="Layer_1" xmlns="http://www.w3.org/2000/svg" xmlns:xlink="http://www.w3.org/1999/xlink" x="0px" y="0px"
	 viewBox="-424 598.8 135.2 150" style="enable-background:new -424 598.8 135.2 150;" xml:space="preserve">
<style type="text/css">
	.st0{fill:none;}
</style>
<rect x="-424" y="598.8" class="st0" width="150.5" height="163.2"/>
<path d="M-364,741.4L-364,741.4l-8.3-17h-4.6v24.4h4.1v-17.4h0.1l8.5,17.4h4.4v-24.4h-4.1V741.4L-364,741.4z M-383.5,707.3
	l-3.8,13.1h2.3l0.7-2.7h3.9l0.7,2.7h2.4l-3.7-13.1C-381,707.3-383.5,707.3-383.5,707.3z M-383.6,715.4l1.3-5.2h0l1.3,5.2H-383.6z
	 M-398.8,713.8c0-6.1-3.7-6.9-5.1-6.9c-1.4,0-5.1,0.7-5.1,6.9c0,6.1,3.7,6.9,5.1,6.9c0.6,0,1.7-0.1,2.7-0.9l1.2,1.5l1.2-1.5
	l-1.1-1.3C-399.3,717.5-398.8,716-398.8,713.8L-398.8,713.8z M-401.5,716.6l-1.1-1.3l-1.1,1.5l1.1,1.2c-0.4,0.3-0.8,0.3-1.2,0.3
	c-1.2,0-2.9-0.9-2.9-4.6c0-3.7,1.7-4.6,2.9-4.6c1.2,0,2.9,0.9,2.9,4.6C-401,715.1-401.2,716-401.5,716.6L-401.5,716.6z
	 M-375.9,707.3v13.1h7.4V718h-5.2v-10.7L-375.9,707.3L-375.9,707.3z M-352.5,720.4h2.2v-13.1h-2.2v4.9h-4.1v-4.9h-2.2v13.1h2.2v-5.9
	h4.1V720.4L-352.5,720.4z M-393.8,738.2h10.2v-4.3h-10.2v-5.1h11.1v-4.3h-15.3v24.4h15.8v-4.3h-11.6V738.2L-393.8,738.2z
	 M-410.5,709.6v-2.3h-7.7v13.1h8V718h-5.8v-3.4h5.1v-2.3h-5.1v-2.7C-416.1,709.6-410.5,709.6-410.5,709.6z M-413.4,724.4h-4.4v24.4
	h14.7v-4.4h-10.4V724.4L-413.4,724.4z M-397.1,707.3v8.7c0,1.3,0.2,2.4,0.8,3.2c0.9,1.3,2.4,1.6,3.3,1.6c2.7,0,4.3-1.5,4.3-4.9v-8.5
	h-2.2v8.6c0,1.6-0.6,2.5-2.1,2.5c-1,0-1.9-0.8-1.9-2.6v-8.5L-397.1,707.3L-397.1,707.3z M-316.6,720.4h2.2v-13.1h-2.2V720.4
	L-316.6,720.4z M-293.1,743.3c0-4.6-0.9-5.3-2.6-6.2c2.1-0.8,3.2-3.1,3.2-5.8c0-2.1-1-6.9-6.6-6.9h-10.5v24.4h4.3v-9.6h4.5
	c3.2,0,3.4,1.3,3.4,4.6c0,2.5,0.2,3.8,0.5,4.9h4.8v-0.6C-293.1,747.8-293.1,746.9-293.1,743.3L-293.1,743.3z M-300.3,735.2h-5.1
	v-6.5h5.4c2.6,0,3,1.9,3,3.2C-296.9,734.3-298,735.2-300.3,735.2L-300.3,735.2z M-322.4,718.4c-1.9,0-2.2-1.4-2.2-2.1h-2.1
	c0,1.6,0.7,4.4,4.5,4.4c0.9,0,4.1-0.3,4.1-4.3c0-2.3-1.3-3.1-2.8-3.5l-2.6-0.8c-0.4-0.1-1.1-0.3-1.1-1.4c0-1.2,1-1.6,1.8-1.6
	c1.9,0,2.1,1.4,2.2,2h2.1c0-1.6-0.9-4.2-4.1-4.2c-3.4,0-4,2.6-4,4c0,2.9,1.6,3.3,3.3,3.8l1.1,0.3c1.1,0.3,1.9,0.6,1.9,1.6
	C-320.2,718.2-321.3,718.5-322.4,718.4L-322.4,718.4z M-303.9,720.4v-13.1h-2.1v9.1h0l-4.2-9.1h-2.3v13.1h2.1V711h0l4.3,9.3H-303.9
	L-303.9,720.4z M-296.9,709.2c1.6,0,2.3,1.6,2.3,2.1h2.2c-0.1-1.8-1.4-4.4-4.6-4.4c-3.6,0-5.1,3.3-5.1,6.9c0,4.6,2.3,6.8,4.8,6.8
	c1.9,0,2.7-1.2,3.3-2l0.2,1.6h1.5v-7h-4.4v2.2h2.4c-0.5,2.6-2.1,2.9-2.5,2.9c-1.5,0-3.1-0.9-3.1-4.5
	C-300,710.6-298.5,709.2-296.9,709.2L-296.9,709.2z M-328.3,715.8v-8.5h-2.2v8.6c0,1.6-0.6,2.5-2.1,2.5c-1,0-1.9-0.8-1.9-2.6v-8.5
	h-2.2v8.7c0,1.3,0.2,2.4,0.8,3.2c0.9,1.3,2.4,1.6,3.3,1.6C-330,720.7-328.3,719.2-328.3,715.8L-328.3,715.8z M-326.7,738.2h10.2
	v-4.3h-10.2v-5.1h11.1v-4.3H-331v24.4h15.8v-4.3h-11.6L-326.7,738.2L-326.7,738.2z M-338.5,713.8c0-6.1-3.7-6.9-5.1-6.9
	c-1.4,0-5.1,0.7-5.1,6.9c0,6.1,3.7,6.9,5.1,6.9C-342.2,720.7-338.5,720-338.5,713.8z M-346.4,713.8c0-3.7,1.7-4.6,2.9-4.6
	c1.2,0,2.9,0.9,2.9,4.6c0,3.7-1.7,4.6-2.9,4.6C-344.8,718.4-346.4,717.5-346.4,713.8L-346.4,713.8z M-344.7,724.4h-9.2v24.4h9
	c6.9,0,8.6-7.6,8.6-12.8C-336.2,731.4-337.6,724.4-344.7,724.4L-344.7,724.4z M-345.4,744.6h-4.2v-16h4.2c1.9,0,4.8,0.6,4.8,7.8
	C-340.6,740.5-341.8,744.6-345.4,744.6L-345.4,744.6z M-356.4,598.8l-67.6,34.6v14.1l7.5,0.1v50.4h119.7l-0.1-50.5h8v-14.1
	L-356.4,598.8L-356.4,598.8z M-310.1,684.7h-93.1v-44.9l46.8-24.1l46.3,24.1L-310.1,684.7L-310.1,684.7z M-378.5,651.7h43.9v-12.1
	h-43.9C-378.5,639.6-378.5,651.7-378.5,651.7z M-378.5,673.5h43.7v-12.1h-43.7V673.5z"/>
</svg>
