<svg height="20" viewBox="0 0 40 16" fill="none" xmlns="http://www.w3.org/2000/svg">
<path d="M35.6571 15.87C35.333 15.8214 35.009 15.789 34.7012 15.7404C31.4934 15.1734 28.8851 12.808 28.3181 9.40588C27.6052 5.11266 30.3594 1.14346 34.6364 0.301014C36.4023 -0.0392037 38.1196 0.122804 39.7883 0.835641C39.7883 2.18031 39.7883 3.54118 39.7883 4.88585C39.2374 4.56183 38.6704 4.22161 38.0548 4.011C36.6291 3.54118 35.2682 3.63838 34.0532 4.54563C32.9677 5.35567 32.4655 6.48973 32.4493 7.8182C32.4331 8.77404 32.6761 9.66509 33.2917 10.4265C34.3124 11.7064 35.6733 12.079 37.2447 11.8846C38.1844 11.755 38.9944 11.3176 39.7883 10.8153C39.7883 12.1762 39.7883 13.5371 39.7883 14.898C39.7721 14.9142 39.7397 14.9142 39.7235 14.9304C39.1726 15.3354 38.557 15.5784 37.8928 15.708C37.5525 15.7728 37.2123 15.8052 36.8721 15.8538C36.4671 15.87 36.0621 15.87 35.6571 15.87Z" fill="#003256"/>
<path fill-rule="evenodd" clip-rule="evenodd" d="M9.62244 15.5945V15.7889H9.73584C10.096 15.7889 10.4556 15.7895 10.8146 15.7902C12.248 15.7928 13.6732 15.7954 15.0983 15.7565C16.281 15.7241 17.4312 15.4973 18.5491 15.076C20.4446 14.347 21.8379 13.0995 22.5345 11.1716C23.134 9.53537 23.1988 7.85048 22.8423 6.1494C22.4049 4.04329 21.2709 2.43941 19.3592 1.40256C18.0307 0.689721 16.605 0.414307 15.1145 0.414307H9.83305C9.67104 0.414307 9.62244 0.446708 9.62244 0.608716V15.5945ZM15.973 11.9978C15.3087 12.1923 14.6445 12.2571 13.9317 12.2571V3.97843C14.0721 3.97843 14.2125 3.97663 14.3529 3.97483C14.6337 3.97123 14.9145 3.96763 15.1953 3.97843C15.7624 4.01084 16.3132 4.14044 16.8154 4.39966C17.9009 4.95048 18.5003 5.85773 18.7109 7.04039C18.8405 7.81803 18.8243 8.59567 18.6299 9.37331C18.2735 10.7828 17.3338 11.609 15.973 11.9978Z" fill="#003256"/>
<path d="M4.58365 9.90798C4.58365 11.8845 4.58365 13.8286 4.58365 15.7889C3.15797 15.7889 1.7485 15.7889 0.355225 15.7889C0.355225 10.6694 0.355225 5.54996 0.355225 0.414307C0.420028 0.414307 0.468631 0.414307 0.533434 0.414307C3.30378 0.414307 6.07413 0.414307 8.84447 0.414307C9.00648 0.414307 9.05508 0.446708 9.05508 0.608716C9.05508 1.66177 9.05508 2.71482 9.05508 3.76788C9.05508 3.83268 9.05508 3.88128 9.05508 3.96229C7.58081 3.96229 6.10653 3.96229 4.64845 3.96229C4.64845 4.75612 4.64845 5.54997 4.64845 6.34381C6.02552 6.34381 7.37019 6.34381 8.73107 6.34381C8.73107 7.52646 8.73107 8.70912 8.73107 9.89178C7.35399 9.90798 5.99312 9.90798 4.58365 9.90798Z" fill="#003256"/>
<path d="M23.4729 0.430237C24.8824 0.430237 26.2756 0.430237 27.6851 0.430237C27.6851 5.5497 27.6851 10.6692 27.6851 15.7886C26.2756 15.7886 24.8824 15.7886 23.4729 15.7886C23.4729 10.6692 23.4729 5.5497 23.4729 0.430237Z" fill="#003256"/>
</svg>
