<svg width="20" height="20" viewBox="0 0 20 20" fill="none" xmlns="http://www.w3.org/2000/svg">
<rect width="20" height="20" fill="white"/>
<path d="M6.5 6.72C6.5 6.32236 6.85258 6 7.2875 6H12.7125C13.1474 6 13.5 6.32236 13.5 6.72C13.5 7.11764 13.1474 7.44 12.7125 7.44H7.2875C6.85258 7.44 6.5 7.11764 6.5 6.72Z" fill="#111111"/>
<path d="M7.2875 9.2C6.85258 9.2 6.5 9.52235 6.5 9.92C6.5 10.3176 6.85258 10.64 7.2875 10.64H10.0875C10.5224 10.64 10.875 10.3176 10.875 9.92C10.875 9.52235 10.5224 9.2 10.0875 9.2H7.2875Z" fill="#111111"/>
<path fill-rule="evenodd" clip-rule="evenodd" d="M17 5.2C17 3.43269 15.433 2 13.5 2H6.5C4.567 2 3 3.43269 3 5.2V14.8C3 16.5673 4.567 18 6.5 18H13.5C15.433 18 17 16.5673 17 14.8V5.2ZM6.5 3.44H13.5L13.6375 3.44442C14.6365 3.50887 15.425 4.27024 15.425 5.2V14.8L15.4202 14.9257C15.3497 15.8391 14.5169 16.56 13.5 16.56H6.5L6.36252 16.5556C5.36354 16.4911 4.575 15.7298 4.575 14.8V5.2L4.57983 5.07431C4.65032 4.16095 5.48308 3.44 6.5 3.44Z" fill="#111111"/>
</svg>
