<?xml version="1.0" encoding="UTF-8"?>
<svg width="1536px" height="1536px" viewBox="0 0 1536 1536" version="1.1" xmlns="http://www.w3.org/2000/svg" xmlns:xlink="http://www.w3.org/1999/xlink">
    <!-- Generator: Sketch 51.2 (57519) - http://www.bohemiancoding.com/sketch -->
    <title>Shape</title>
    <desc>Created with Sketch.</desc>
    <defs></defs>
    <g id="Page-1" stroke="none" stroke-width="1" fill="none" fill-rule="evenodd">
        <path d="M768,0 C907.333333,0 1035.83333,34.3333333 1153.5,103 C1271.16667,171.666667 1364.33333,264.833333 1433,382.5 C1501.66667,500.166667 1536,628.666667 1536,768 C1536,907.333333 1501.66667,1035.83333 1433,1153.5 C1364.33333,1271.16667 1271.16667,1364.33333 1153.5,1433 C1035.83333,1501.66667 907.333333,1536 768,1536 C628.666667,1536 500.166667,1501.66667 382.5,1433 C264.833333,1364.33333 171.666667,1271.16667 103,1153.5 C34.3333333,1035.83333 0,907.333333 0,768 C0,628.666667 34.3333333,500.166667 103,382.5 C171.666667,264.833333 264.833333,171.666667 382.5,103 C500.166667,34.3333333 628.666667,0 768,0 Z M896,1247 L896,1057 C896,1047.66667 893,1039.83333 887,1033.5 C881,1027.16667 873.666667,1024 865,1024 L673,1024 C664.333333,1024 656.666667,1027.33333 650,1034 C643.333333,1040.66667 640,1048.33333 640,1057 L640,1247 C640,1255.66667 643.333333,1263.33333 650,1270 C656.666667,1276.66667 664.333333,1280 673,1280 L865,1280 C873.666667,1280 881,1276.83333 887,1270.5 C893,1264.16667 896,1256.33333 896,1247 Z M894,903 L912,282 C912,274 908.666667,268 902,264 C895.333333,258.666667 887.333333,256 878,256 L658,256 C648.666667,256 640.666667,258.666667 634,264 C627.333333,268 624,274 624,282 L641,903 C641,909.666667 644.333333,915.5 651,920.5 C657.666667,925.5 665.666667,928 675,928 L860,928 C869.333333,928 877.166667,925.5 883.5,920.5 C889.833333,915.5 893.333333,909.666667 894,903 Z" id="Shape" fill="#CC2233" fill-rule="nonzero"></path>
    </g>
</svg>