<?xml version="1.0" encoding="UTF-8"?>
<svg width="24px" height="24px" viewBox="0 0 24 24" version="1.1" xmlns="http://www.w3.org/2000/svg" xmlns:xlink="http://www.w3.org/1999/xlink">
    <title>EEB49D05-99AF-473D-A76F-6AFEF8C92BDC</title>
    <defs>
        <rect id="path-1" x="0" y="88" width="1440" height="528"></rect>
        <filter x="-0.9%" y="-2.1%" width="101.8%" height="104.9%" filterUnits="objectBoundingBox" id="filter-2">
            <feOffset dx="0" dy="2" in="SourceAlpha" result="shadowOffsetOuter1"></feOffset>
            <feGaussianBlur stdDeviation="4" in="shadowOffsetOuter1" result="shadowBlurOuter1"></feGaussianBlur>
            <feColorMatrix values="0 0 0 0 0   0 0 0 0 0   0 0 0 0 0  0 0 0 0.24 0" type="matrix" in="shadowBlurOuter1"></feColorMatrix>
        </filter>
    </defs>
    <g id="Page-1" stroke="none" stroke-width="1" fill="none" fill-rule="evenodd">
        <g id="Desktop-(Small)-Copy-6" transform="translate(-40.000000, -600.000000)">
                <rect id="Rectangle-Copy-2" fill="#111111" opacity="0.699999988" x="0" y="182" width="1440" height="842"></rect>
            <g id="Group-6" transform="translate(0.000000, 40.000000)">
                <g id="Background-Copy">
                    <use fill="black" fill-opacity="1" filter="url(#filter-2)" xlink:href="#path-1"></use>
                    <use fill="#FFFFFF" fill-rule="evenodd" xlink:href="#path-1"></use>
                </g>
                <g id="Group-7-Copy-5" transform="translate(0.000000, 528.000000)">
                    <rect id="Background-Copy-4" fill="#FFFFFF" x="0" y="0" width="1440" height="88"></rect>
                    <g id="place_black_24dp" transform="translate(40.000000, 32.000000)">
                        <polygon id="Path" points="0 0 24 0 24 24 0 24"></polygon>
                        <path d="M12.1,12 C10.89,12 9.9,11.01 9.9,9.8 C9.9,8.59 10.89,7.6 12.1,7.6 C13.31,7.6 14.3,8.59 14.3,9.8 C14.3,11.01 13.31,12 12.1,12 Z M18.7,10.02 C18.7,6.027 15.785,3.2 12.1,3.2 C8.415,3.2 5.5,6.027 5.5,10.02 C5.5,12.594 7.645,16.004 12.1,20.074 C16.555,16.004 18.7,12.594 18.7,10.02 Z M12.1,1 C16.72,1 20.9,4.542 20.9,10.02 C20.9,13.672 17.963,17.995 12.1,23 C6.237,17.995 3.3,13.672 3.3,10.02 C3.3,4.542 7.48,1 12.1,1 Z" id="Shape" fill="#8C8C8C" fill-rule="nonzero"></path>
                    </g>
                </g>
            </g>
        </g>
    </g>
</svg>