<?xml version="1.0" encoding="UTF-8"?>
<svg width="20px" height="24px" viewBox="0 0 20 24" version="1.1" xmlns="http://www.w3.org/2000/svg" xmlns:xlink="http://www.w3.org/1999/xlink">
    <title>73FE59E5-396A-4D9E-AD2F-EB8C1A551F87</title>
    <g id="Page-1" stroke="none" stroke-width="1" fill="none" fill-rule="evenodd">
        <g id="Header" transform="translate(-1137.000000, -78.000000)">
            <g id="Group-6" transform="translate(0.000000, 40.000000)" fill="#FFFFFF">
                <rect id="Background-Copy" x="0" y="56" width="1440" height="32"></rect>
            </g>
            <g id="Group-3-Copy" transform="translate(1137.000000, 76.000000)" fill="#707070" fill-rule="nonzero">
                <g id="Icon/Help-Circle" transform="translate(0.000000, 2.000000)">
                    <path d="M10,2 C15.5150054,2 20,6.48499462 20,12 C20,17.5150054 15.5150054,22 10,22 C4.48499462,22 0,17.5150054 0,12 C0,6.48499462 4.48499462,2 10,2 Z M10,3.81818182 C5.48914871,3.81818182 1.81818182,7.48914871 1.81818182,12 C1.81818182,16.5108513 5.48914871,20.1818182 10,20.1818182 C14.5108513,20.1818182 18.1818182,16.5108513 18.1818182,12 C18.1818182,7.48914871 14.5108513,3.81818182 10,3.81818182 Z M10.0614395,15.2531063 C10.6697126,15.2531063 11.1635027,15.7466971 11.1635027,16.3538259 C11.1635027,16.9609547 10.6697126,17.4545455 10.0614395,17.4545455 C9.45316636,17.4545455 8.95937632,16.9609547 8.95937632,16.3538259 C8.95937632,15.7466971 9.45316636,15.2531063 10.0614395,15.2531063 Z M10.1623812,6.36363636 C10.7476289,6.36363636 11.2731774,6.48876695 11.7349047,6.74020263 C12.1973263,6.99201636 12.5657223,7.34199251 12.8363372,7.78690186 C13.1088544,8.23493861 13.2443818,8.75637454 13.2443818,9.34575167 C13.2443818,9.84772752 13.1625938,10.2884743 12.9966338,10.6664943 C12.8340429,11.0368402 12.6123798,11.3693348 12.3324631,11.6627959 C12.065703,11.9424637 11.7611994,12.2190902 11.4199982,12.4920473 C11.2469557,12.6318124 11.128151,12.8116697 11.0604823,13.0383597 C10.9994257,13.2428992 10.9634441,13.4133551 10.9514938,13.5472711 L10.9470205,13.6408184 C10.9470205,13.8929681 10.8625689,14.1131455 10.6956944,14.2859798 C10.5257357,14.4620085 10.3004037,14.5503143 10.0375246,14.5503143 C9.78344571,14.5503143 9.56183613,14.4622776 9.38895079,14.2893923 C9.21606544,14.1165069 9.12802876,13.8948974 9.12802876,13.6408184 C9.12802876,13.2763757 9.21965014,12.8846943 9.39993285,12.465537 C9.58325356,12.0393163 9.86657777,11.6623123 10.2470915,11.3361577 C10.4749878,11.140818 10.684206,10.9478498 10.8747442,10.7573116 C11.0482485,10.5838073 11.1883549,10.3847087 11.2957373,10.1588354 C11.3977137,9.94433343 11.4503614,9.67383317 11.4503614,9.34575167 C11.4503614,9.12424111 11.3989956,8.91877796 11.2954001,8.72539978 C11.1928073,8.53389319 11.0484063,8.37929919 10.8587426,8.25860413 C10.6761884,8.14243325 10.4459541,8.08274287 10.1623812,8.08274287 C9.79841759,8.08274287 9.50683008,8.14754009 9.28475046,8.27245988 C9.06647486,8.3952399 8.90797486,8.56208201 8.80342349,8.77793 C8.71533846,8.95978297 8.66178955,9.17001763 8.64389338,9.40993807 L8.6371736,9.59546485 C8.6371736,9.84761457 8.55272199,10.067792 8.38584749,10.2406263 C8.21588875,10.416655 7.9905568,10.5049607 7.72767771,10.5049607 C7.47359877,10.5049607 7.25198919,10.4169241 7.07910384,10.2440387 C6.9062185,10.0711534 6.81818182,9.84954379 6.81818182,9.59546485 C6.81818182,8.96663043 6.95675322,8.40780151 7.2353409,7.92369832 C7.51436819,7.43883123 7.90878578,7.05587927 8.41413866,6.77816282 C8.91811262,6.50120416 9.50221193,6.36363636 10.1623812,6.36363636 Z" id="Icon-FAQ-Shape"></path>
                </g>
            </g>
        </g>
    </g>
</svg>