<?xml version="1.0" encoding="utf-8"?>
<!-- Generator: Adobe Illustrator 23.1.1, SVG Export Plug-In . SVG Version: 6.00 Build 0)  -->
<svg version="1.1" id="Layer_1" xmlns="http://www.w3.org/2000/svg" xmlns:xlink="http://www.w3.org/1999/xlink" x="0px" y="0px"
	 viewBox="0 0 24 12" style="enable-background:new 0 0 24 12;" xml:space="preserve">
<style type="text/css">
	.st0{fill:#117788;}
	.st1{fill:#083B44;}
</style>
<title>icon-double-down-arrows</title>
<path class="st0" d="M9.3,5.9c0.3,0.3,0.3,0.7,0.1,1L9.3,7L6.5,9.8c-0.3,0.3-0.7,0.3-1,0.1L5.5,9.8L2.7,7c-0.3-0.3-0.3-0.8,0-1.1
	c0.3-0.3,0.7-0.3,1-0.1l0.1,0.1L6,8.1l2.3-2.3C8.6,5.6,9,5.6,9.3,5.9C9.3,5.9,9.3,5.9,9.3,5.9z M9.3,2.2c0.3,0.3,0.3,0.7,0.1,1
	L9.3,3.3L6.5,6.1c-0.3,0.3-0.7,0.3-1,0.1L5.5,6.1L2.7,3.3C2.4,3,2.4,2.5,2.7,2.2c0.3-0.3,0.7-0.3,1-0.1l0.1,0.1L6,4.5l2.3-2.3
	C8.6,1.9,9,1.9,9.3,2.2C9.3,2.2,9.3,2.2,9.3,2.2z"/>
<path class="st1" d="M21.3,5.9c0.3,0.3,0.3,0.7,0.1,1L21.3,7l-2.8,2.8c-0.3,0.3-0.7,0.3-1,0.1l-0.1-0.1L14.7,7
	c-0.3-0.3-0.3-0.8,0-1.1c0.3-0.3,0.7-0.3,1-0.1l0.1,0.1L18,8.1l2.3-2.3C20.6,5.6,21,5.6,21.3,5.9C21.3,5.9,21.3,5.9,21.3,5.9z
	 M21.3,2.2c0.3,0.3,0.3,0.7,0.1,1l-0.1,0.1l-2.8,2.8c-0.3,0.3-0.7,0.3-1,0.1l-0.1-0.1l-2.8-2.8c-0.3-0.3-0.3-0.8,0-1.1
	c0.3-0.3,0.7-0.3,1-0.1l0.1,0.1L18,4.5l2.3-2.3C20.6,1.9,21,1.9,21.3,2.2C21.3,2.2,21.3,2.2,21.3,2.2z"/>
</svg>
