<svg width="20" height="20" viewBox="0 0 20 20" fill="none" xmlns="http://www.w3.org/2000/svg">
<rect width="20" height="20" fill="white"/>
<path d="M5.55556 17H3.77778C3.28889 17 2.87037 16.8368 2.52222 16.5104C2.17407 16.184 2 15.7917 2 15.3333V9.5C2 8.45833 2.21111 7.48264 2.63333 6.57292C3.05556 5.66319 3.62593 4.87153 4.34444 4.19792C5.06296 3.52431 5.90741 2.98958 6.87778 2.59375C7.84815 2.19792 8.88889 2 10 2C11.1111 2 12.1519 2.19792 13.1222 2.59375C14.0926 2.98958 14.937 3.52431 15.6556 4.19792C16.3741 4.87153 16.9444 5.66319 17.3667 6.57292C17.7889 7.48264 18 8.45833 18 9.5V15.3333C18 15.7917 17.8259 16.184 17.4778 16.5104C17.1296 16.8368 16.7111 17 16.2222 17H14.4444C13.9556 17 13.537 16.8368 13.1889 16.5104C12.8407 16.184 12.6667 15.7917 12.6667 15.3333V12C12.6667 11.5417 12.8407 11.1493 13.1889 10.8229C13.537 10.4965 13.9556 10.3333 14.4444 10.3333H16.2222V9.5C16.2222 7.875 15.6185 6.49653 14.4111 5.36458C13.2037 4.23264 11.7333 3.66667 10 3.66667C8.26667 3.66667 6.7963 4.23264 5.58889 5.36458C4.38148 6.49653 3.77778 7.875 3.77778 9.5V10.3333H5.55556C6.04444 10.3333 6.46296 10.4965 6.81111 10.8229C7.15926 11.1493 7.33333 11.5417 7.33333 12V15.3333C7.33333 15.7917 7.15926 16.184 6.81111 16.5104C6.46296 16.8368 6.04444 17 5.55556 17ZM5.55556 12H3.77778V15.3333H5.55556V12ZM14.4444 12V15.3333H16.2222V12H14.4444Z" fill="#222222"/>
</svg>
