<?xml version="1.0" encoding="utf-8"?>
<!-- Generator: Adobe Illustrator 27.7.0, SVG Export Plug-In . SVG Version: 6.00 Build 0)  -->
<svg version="1.1" id="Layer_1" xmlns="http://www.w3.org/2000/svg" xmlns:xlink="http://www.w3.org/1999/xlink" x="0px" y="0px"
	 viewBox="0 0 24 24" style="enable-background:new 0 0 24 24;" xml:space="preserve">
<style type="text/css">
	.st0{fill:#FFFFFF;}
	.st1{fill-rule:evenodd;clip-rule:evenodd;fill:#FFFFFF;}
</style>
<g>
	<path class="st0" d="M12,13.5c-0.4,0-0.8,0.4-0.8,0.8v1.9c0,0.4,0.4,0.8,0.8,0.8s0.8-0.4,0.8-0.8v-1.9C12.8,13.9,12.4,13.5,12,13.5
		z"/>
	<path class="st1" d="M17,7c0-2.8-2.2-5-5-5C9.2,2,7,4.2,7,7v2c-1.1,0-2,0.9-2,2v4.5c0,3.6,2.9,6.5,6.5,6.5h1c3.6,0,6.5-2.9,6.5-6.5
		V11c0-1.1-0.9-2-2-2V7z M8.6,7v2h6.8V7c0-1.8-1.4-3.3-3.2-3.4l-0.2,0c-1.8,0-3.3,1.4-3.4,3.2L8.6,7z M6.8,10.9
		c0-0.1,0.1-0.1,0.2-0.1h10l0.1,0c0.1,0,0.1,0.1,0.1,0.2v4.5l0,0.2c-0.1,2.5-2.2,4.5-4.7,4.5h-1l-0.2,0c-2.5-0.1-4.5-2.2-4.5-4.7
		L6.8,10.9L6.8,10.9z"/>
</g>
</svg>
