<?xml version="1.0" encoding="utf-8"?>
<!-- Generator: Adobe Illustrator 19.1.0, SVG Export Plug-In . SVG Version: 6.00 Build 0)  -->
<svg version="1.1" id="Layer_1" xmlns="http://www.w3.org/2000/svg" xmlns:xlink="http://www.w3.org/1999/xlink" x="0px" y="0px"
	 viewBox="0 0 244.2 150" style="enable-background:new 0 0 244.2 150;" xml:space="preserve">
<g id="JkqEgh.tif">
	<g>
		<path d="M218.8,150c-2-0.3-4-0.5-5.9-0.8c-19.8-3.5-35.9-18.1-39.4-39.1c-4.4-26.5,12.6-51,39-56.2c10.9-2.1,21.5-1.1,31.8,3.3
			c0,8.3,0,16.7,0,25c-3.4-2-6.9-4.1-10.7-5.4c-8.8-2.9-17.2-2.3-24.7,3.3c-6.7,5-9.8,12-9.9,20.2c-0.1,5.9,1.4,11.4,5.2,16.1
			c6.3,7.9,14.7,10.2,24.4,9c5.8-0.8,10.8-3.5,15.7-6.6c0,8.4,0,16.8,0,25.2c-0.1,0.1-0.3,0.1-0.4,0.2c-3.4,2.5-7.2,4-11.3,4.8
			c-2.1,0.4-4.2,0.6-6.3,0.9C223.8,150,221.3,150,218.8,150z"/>
		<path d="M54.7,0c0,1.5,0,3,0,4.6c-1,0.1-2,0.2-3,0.3c-2.3,0.3-3.2,1.3-3.3,3.7c0,3.9,0,7.7,0,11.6c0,4,0,8,0,12
			c0,2.4,0.6,3,2.9,3.3c1.1,0.1,2.2,0.2,3.4,0.2c0,1.4,0,2.8,0,4.3c-7.1,0-14.2,0-21.3,0c0-1.4,0-2.9,0-4.3c1.4-0.1,2.9-0.2,4.3-0.4
			c1.6-0.2,2.2-0.9,2.2-2.5c0-7.8,0-15.5,0-23.3c0-0.1,0-0.1-0.1-0.5c-4,10.5-7.9,20.8-11.8,31.1c-1.4,0-2.8,0.1-4.2,0
			c-0.3,0-0.7-0.5-0.8-0.9c-2.2-6.2-4.4-12.4-6.5-18.6c-1.2-3.5-2.4-7-3.7-10.4c-0.1-0.3-0.2-0.6-0.5-0.9c0,0.2-0.1,0.5-0.1,0.7
			c0,7,0,14,0,21.1c0,0.1,0,0.1,0,0.2c0,3.1,0.8,4,3.9,4.2c0.7,0.1,1.5,0.1,2.3,0.2c0,1.5,0,2.9,0,4.4c-6.2,0-12.3,0-18.5,0
			c0-1.5,0-3,0-4.5c0.5,0,1,0,1.5,0c3.8-0.2,4.5-0.9,4.5-4.7c0-7.2,0-14.4,0-21.7C6.1,8.5,6,7.7,5.9,7C5.7,5.7,5.2,5,3.8,4.9
			C2.6,4.7,1.3,4.7,0,4.7C0,3.1,0,1.6,0,0c6.2,0,12.3,0,18.5,0c2.9,8.4,5.7,16.8,8.6,25.3c0.2-0.5,0.3-0.8,0.5-1.1
			c1.4-3.7,2.7-7.4,4.1-11.1c1.6-4.4,3.2-8.7,4.7-13.1C42.5,0,48.6,0,54.7,0z"/>
		<path d="M158.5,0c0,4.8,0,9.6,0,14.6c1-0.7,1.8-1.4,2.7-1.9c4-2.6,9.1-2.4,12.6,0.5c1.8,1.5,3,3.3,3.8,5.5c1.7,5,1.7,10-0.2,14.9
			c-3.4,8.9-14.7,9.6-19.5,4.1c-0.1-0.2-0.3-0.3-0.5-0.5c-0.7,0.9-1.3,1.7-1.9,2.6c-0.3,0.5-0.7,0.7-1.3,0.7c-0.9-0.1-1.8,0-2.7,0
			c0-0.5-0.1-0.9-0.1-1.4c0-9.9,0-19.9,0-29.8c0-0.9,0-1.8-0.1-2.6c-0.2-1.6-0.8-2.2-2.4-2.4c-0.7-0.1-1.5-0.1-2.3-0.2
			c0-1.4,0-2.8,0-4.1C150.5,0,154.5,0,158.5,0z M158.4,25.9c0,2.3,0.2,4.5,1.2,6.6c1,2.1,2.5,3.5,5,3.5c2.5,0,4-1.4,4.8-3.6
			c0.6-1.7,1-3.6,1.2-5.4c0.3-2.7,0-5.4-1.1-7.9c-0.7-1.6-1.8-2.8-3.6-3.2c-2.7-0.6-5.2,0.6-6.4,3.2
			C158.6,21.4,158.5,23.7,158.4,25.9z"/>
		<path d="M58.1,149.5c0-0.4,0-0.8,0-1.2c0-30.8,0-61.7,0-92.5c0-1,0.3-1.2,1.3-1.2c10.9,0,21.7,0,32.6,0c9.2,0,18,1.7,26.2,6.1
			c11.8,6.4,18.8,16.3,21.5,29.3c2.2,10.5,1.8,20.9-1.9,31c-4.3,11.9-12.9,19.6-24.6,24.1c-6.9,2.6-14,4-21.3,4.2
			c-11,0.3-22,0.2-33.1,0.2C58.5,149.5,58.4,149.5,58.1,149.5z M84.7,127.7c4.4,0,8.5-0.4,12.6-1.6c8.4-2.4,14.2-7.5,16.4-16.2
			c1.2-4.8,1.3-9.6,0.5-14.4c-1.3-7.3-5-12.9-11.7-16.3c-3.1-1.6-6.5-2.4-10-2.6c-2.6-0.1-5.2,0-7.8,0
			C84.7,93.7,84.7,110.6,84.7,127.7z"/>
		<path d="M27,113.2c0,12.2,0,24.2,0,36.3c-8.8,0-17.5,0-26.1,0c0-31.6,0-63.2,0-94.9c0.4,0,0.7,0,1.1,0c17.1,0,34.2,0,51.3,0
			c1,0,1.3,0.2,1.3,1.2c0,6.5,0,13,0,19.5c0,0.4,0,0.7,0,1.2c-9.1,0-18.2,0-27.2,0c0,4.9,0,9.8,0,14.7c8.5,0,16.8,0,25.2,0
			c0,7.3,0,14.6,0,21.9C44.1,113.2,35.7,113.2,27,113.2z"/>
		<path d="M143.6,54.7c8.7,0,17.3,0,26,0c0,31.6,0,63.2,0,94.8c-8.7,0-17.3,0-26,0C143.6,117.9,143.6,86.3,143.6,54.7z"/>
		<path d="M89.8,15.7c0-1.3,0-2.7,0-4c4.3,0,8.6,0,12.9,0c0,1.4,0,2.8,0,4.5c0.6-0.7,1-1.1,1.4-1.6c2.9-3.2,6.4-4.4,10.6-3.6
			c2,0.4,3.6,1.6,4.8,3.2c0.4,0.5,0.7,1,1.2,1.7c0.7-0.6,1.3-1.2,1.9-1.8c3-2.7,6.5-3.6,10.5-2.9c2.9,0.5,4.6,2.2,5.2,5
			c0.3,1.6,0.5,3.2,0.5,4.8c0.1,3.9,0,7.8,0,11.7c0,2.6,0.4,2.9,3,2.9c0.8,0,1.6,0,2.5,0c0,1.5,0,2.9,0,4.4c-5.6,0-11.2,0-16.8,0
			c0-1.4,0-2.9,0-4.4c0.8-0.1,1.6-0.1,2.4-0.2c1.1-0.1,1.6-0.7,1.7-1.8c0-1.3,0-2.6,0-3.9c0-3.3,0-6.6-0.1-9.9
			c-0.1-3.9-2.7-4.8-5.9-3.9c-1.9,0.5-3.2,1.8-3.9,3.6c-0.5,1.5-0.9,3.2-1,4.8c-0.2,2.6,0,5.3,0,7.9c0,0.4,0.1,0.9,0.1,1.3
			c0.1,1.1,0.7,1.7,1.8,1.8c0.7,0.1,1.3,0.1,2.1,0.2c0,1.4,0,2.8,0,4.3c-5.1,0-10.1,0-15.3,0c0-1.4,0-2.8,0-4.3
			c0.6-0.1,1.3-0.1,1.9-0.2c1.8-0.3,2.3-0.8,2.3-2.6c0-3.3,0-6.6,0-10c0-1.2,0-2.5-0.2-3.6c-0.4-2.2-1.8-3.3-4.1-3.4
			c-3.3-0.1-5.8,2.1-6.3,5.8c-0.3,1.9-0.2,3.8-0.3,5.8c0,1.6,0,3.1,0,4.7c0.1,2.5,0.6,3.1,3.1,3.4c0.3,0,0.6,0.1,1,0.1
			c0,1.5,0,2.9,0,4.4c-5.7,0-11.3,0-17,0c0-1.4,0-2.9,0-4.4c1.1-0.1,2.3-0.1,3.4-0.2c1.4-0.2,1.8-0.6,2-2c0.1-0.7,0.2-1.5,0.2-2.2
			c0-3.9,0-7.8,0-11.7c0-0.3,0-0.7,0-1c-0.2-1.9-0.7-2.5-2.6-2.7C91.8,15.8,90.8,15.7,89.8,15.7z"/>
		<path d="M80.4,29.8c1.6,0,3.3,0,4.9,0c0.1,4.3-3,8.8-7.1,10.3c-4.9,1.7-9.7,1.3-14.1-1.5c-4.8-3.1-6-7.9-5.8-13.3
			c0.2-3.6,1.3-7,3.8-9.8c3.7-4.1,8.4-5.3,13.6-4.1c5.2,1.2,8,5,9.2,10c0.4,1.7,0.5,3.5,0.8,5.3c-6.6,0-12.9,0-19.3,0
			c0,3,0.6,5.6,2.8,7.6c2.1,1.9,4.6,2.1,7.2,1.3c2.2-0.7,3.2-2.5,3.8-4.6C80.2,30.6,80.3,30.2,80.4,29.8z M77.5,22.1
			c-0.1-2.4-0.2-4.7-2.4-6c-1.9-1.1-4-1-5.9,0.2c-2,1.4-2.3,3.5-2.4,5.8C70.4,22.1,73.8,22.1,77.5,22.1z"/>
		<path d="M211.3,26.7c-6.4,0-12.7,0-19,0c-0.4,5.1,2.6,10.4,8.9,9.1c2.5-0.5,3.8-2.1,4.6-4.4c0.2-0.5,0.3-1,0.4-1.6
			c1.7,0,3.3,0,5.2,0c-0.2,1-0.3,1.9-0.6,2.8c-1.5,4.9-5.5,8.1-10.6,8.3c-2,0.1-4.1,0-6-0.5c-5.3-1.3-8.4-4.8-9.5-10.1
			c-0.9-4.2-0.5-8.2,1.4-12.1c2.6-5.1,7.4-7.7,13.6-7.2c5.5,0.5,9,3.8,10.7,8.9C211.1,22.1,211.4,24.3,211.3,26.7z M203.4,22.1
			c0-2.3-0.2-4.6-2.3-5.9c-1.9-1.2-4.1-1.2-6.1,0.1c-2.1,1.3-2.4,3.5-2.5,5.8C196.2,22.1,199.7,22.1,203.4,22.1z"/>
		<path d="M234.3,35.5c0,1.6,0,3,0,4.5c-6.2,0-12.3,0-18.5,0c0-1.4,0-2.8,0-4.3c1.1-0.1,2.3-0.1,3.4-0.3c1.5-0.2,2.1-0.7,2.1-2.2
			c0.1-2.3,0.1-4.7,0.1-7c0-2.2,0-4.5,0-6.7c0-2.9-0.6-3.6-3.5-3.7c-0.7,0-1.3,0-2.1,0c0-1.4,0-2.7,0-4.1c4.2,0,8.4,0,12.7,0
			c0,1.2,0,2.3,0,3.8c0.7-0.7,1.1-1.1,1.6-1.6c2.1-2,4.5-3.3,7.6-2.9c4.3,0.5,6.9,5.3,5,9.2c-1.1,2.2-3.7,3.1-5.9,2.1
			c-2.4-1.1-2.9-4.2-1-6.1c0.4-0.4,1-0.8,1.6-1.3c-1.6-0.6-3-0.3-4.3,0.3c-1.4,0.7-2.4,1.8-2.9,3.2c-0.5,1.5-1.1,3.1-1.2,4.7
			c-0.2,3.4-0.1,6.8-0.1,10.2c0,1.7,0.5,2.2,2.2,2.3C232,35.6,233.2,35.5,234.3,35.5z"/>
	</g>
</g>
</svg>
