<?xml version="1.0" encoding="UTF-8"?>
<svg width="39px" height="50px" viewBox="0 0 39 50" version="1.1" xmlns="http://www.w3.org/2000/svg" xmlns:xlink="http://www.w3.org/1999/xlink">
    <title>Combined Shape</title>
    <g id="Locator---Almost-Final" stroke="none" stroke-width="1" fill="none" fill-rule="evenodd">
        <g id="Header---Results" transform="translate(-254.000000, -978.000000)" fill="#BBBBBB" fill-rule="nonzero">
            <g id="Group-12" transform="translate(226.000000, 578.000000)">
                <g id="Group-4-Copy-2" transform="translate(0.000000, 378.000000)">
                    <g id="Locator-Icon" transform="translate(28.000000, 22.000000)">
                        <path d="M19.047619,0 C29.5196044,0 38.047619,8.72809424 38.047619,19.4457676 C38.047619,20.7010973 37.9319065,21.9445843 37.7004814,23.1525431 C37.7004814,23.1762285 37.6889102,23.199914 37.6889102,23.2235995 C37.6773389,23.2828131 37.6426251,23.4604541 37.5847689,23.732837 L37.5847689,23.7565224 L37.5847689,23.7565224 C37.2954875,25.0829085 36.8673511,26.3737664 36.3003596,27.6172534 C36.2887884,27.6290961 36.2887884,27.6527816 36.2772171,27.6646243 C34.1133925,32.9109551 29.3691781,40.9166426 19.047619,49.6447368 C8.72605997,40.9166426 3.9818456,32.9109551 1.818021,27.6646243 C1.80644974,27.6527816 1.80644974,27.6290961 1.79487849,27.6172534 C1.23945827,26.3856092 0.811321849,25.0829085 0.51046923,23.7565224 L0.51046923,23.732837 L0.51046923,23.732837 C0.441041703,23.4604541 0.417899194,23.2828131 0.406327939,23.2235995 C0.406327939,23.199914 0.394756685,23.1762285 0.394756685,23.1407003 C0.163331593,21.9208988 0.0476190476,20.6892546 0.0476190476,19.4457676 C0.0476190476,8.72809424 8.57563366,0 19.047619,0 Z M19.047619,7.09210526 C12.4374496,7.09210526 7.04761905,12.5528546 7.04761905,19.25 C7.04761905,25.9471454 12.4247377,31.4078947 19.047619,31.4078947 C25.6705004,31.4078947 31.047619,25.9471454 31.047619,19.25 C31.047619,12.5528546 25.6577885,7.09210526 19.047619,7.09210526 Z" id="Combined-Shape"></path>
                    </g>
                </g>
            </g>
        </g>
    </g>
</svg>