<?xml version="1.0" encoding="UTF-8" standalone="no"?>
<svg width="181px" height="30px" viewBox="0 0 181 30" version="1.1" xmlns="http://www.w3.org/2000/svg" xmlns:xlink="http://www.w3.org/1999/xlink">
    <!-- Generator: Sketch 48.2 (47327) - http://www.bohemiancoding.com/sketch -->
    <title>regions-logo-no-r</title>
    <desc>Created with Sketch.</desc>
    <defs></defs>
    <g id="Page-1" stroke="none" stroke-width="1" fill="none" fill-rule="evenodd">
        <g id="regions-logo-no-r" fill-rule="nonzero">
            <g id="regions" transform="translate(51.000000, 8.000000)" fill="#558800">
                <path d="M8.52,10.2793 C12.66,10.5693 14.563,9.3023 14.563,5.7863 C14.563,3.0693 12.996,1.5843 10.012,1.5843 L8.52,1.5843 L8.52,10.2793 M3.708,3.9023 C3.708,2.1303 3.298,1.4423 0.945,1.0053 L0.945,0.3873 L11.32,0.3873 C17.362,0.3873 19.788,2.7443 19.788,5.7143 C19.788,7.8853 18.52,9.8803 15.386,10.7463 L15.386,10.8213 C17.809,11.3653 20.159,18.1373 22.139,20.0563 C22.697,20.6033 23.181,20.8183 24.115,20.9633 L24.115,21.5803 L17.809,21.5803 C15.421,18.8253 13.856,14.0803 12.177,12.4493 C11.207,11.5093 10.46,11.4743 8.52,11.4743 L8.52,17.9943 C8.52,19.8773 9.306,20.6753 11.32,20.9633 L11.32,21.5803 L0.945,21.5803 L0.945,20.9633 C2.74,20.8183 3.708,19.9493 3.708,18.2483 L3.708,3.9023" id="R"></path>
                <path d="M38.4092,15.9209 L37.8612,15.9209 C37.6582,14.4939 36.9062,13.8219 35.5242,13.8219 L32.5512,13.8219 L32.5512,18.6379 C32.5512,20.1229 33.1842,20.6529 34.8612,20.6529 L35.8412,20.6529 C37.9182,20.6529 38.8432,19.1719 39.3892,17.6019 L39.8792,17.6019 L39.5632,21.5799 L26.6942,21.5799 L26.6942,21.1019 C28.5702,20.7129 28.8302,20.1499 28.8302,18.4729 L28.8302,7.9369 C28.8302,6.5089 28.4802,6.0029 26.6942,5.6669 L26.6942,5.1919 L39.3612,5.1919 L39.3612,8.8299 L38.8702,8.8299 C38.3212,6.7319 37.6862,6.1149 35.8142,6.1149 L32.5512,6.1149 L32.5512,12.8949 L35.5242,12.8949 C36.8792,12.8949 37.5152,12.3359 37.8612,10.8499 L38.4092,10.8499 L38.4092,15.9209" id="E"></path>
                <path d="M58.8379,20.8242 C57.2249,21.5802 54.8279,22.0002 52.2889,22.0002 C46.1989,22.0002 43.1129,17.7152 43.1129,13.5122 C43.1129,8.4982 47.0069,4.7732 52.2889,4.7732 C54.8559,4.7732 56.0119,5.7522 57.1079,5.7522 C57.5679,5.7522 57.8859,5.6102 58.3199,5.1922 L58.8379,5.1922 L58.8379,9.7852 L58.3199,9.7852 C57.3089,7.2922 55.0589,5.6962 52.5179,5.6962 C49.0569,5.6962 47.1499,8.7222 47.1499,13.7932 C47.1499,19.0292 49.4629,21.0762 52.5759,21.0762 C54.1059,21.0762 55.1169,20.6812 55.1169,19.3382 L55.1169,16.9022 C55.1169,15.8382 54.6839,15.1372 53.3869,14.8832 L53.3869,14.4062 L60.4839,14.4062 L60.4839,14.8832 C59.2399,15.2202 58.8379,15.8382 58.8379,17.3512 L58.8379,20.8242" id="G"></path>
                <path d="M69.6855,18.8047 C69.6855,20.2637 70.0645,20.6817 71.8225,21.1017 L71.8225,21.5797 L63.8325,21.5797 L63.8325,21.1017 C65.9085,20.5977 65.9625,20.0377 65.9625,18.4437 L65.9625,7.9667 C65.9625,6.5097 65.5895,6.0887 63.8325,5.6667 L63.8325,5.1927 L71.8225,5.1927 L71.8225,5.6667 C69.8015,6.1157 69.6855,6.7317 69.6855,8.3007 L69.6855,18.8047" id="I"></path>
                <path d="M84.8643,5.6963 C81.5473,5.6963 79.7283,8.3563 79.7283,13.5393 C79.7283,17.4923 81.0553,21.0763 84.8643,21.0763 C87.6923,21.0763 90.0283,18.9203 90.0283,13.5113 C90.0283,8.9163 88.5603,5.6963 84.8643,5.6963 M84.8643,22.0003 C79.5293,22.0003 75.6903,18.4143 75.6903,13.4023 C75.6903,8.3863 79.5293,4.7733 84.8643,4.7733 C90.2323,4.7733 94.0703,8.3863 94.0703,13.4023 C94.0703,18.4143 90.2323,22.0003 84.8643,22.0003" id="O"></path>
                <path d="M113.0889,21.7773 L112.5369,21.7773 L100.3859,8.4683 L100.3859,18.4963 C100.3859,20.2933 100.9369,20.7973 102.8679,21.1013 L102.8679,21.5803 L97.0419,21.5803 L97.0419,21.1013 C98.8609,20.8243 99.2889,19.8713 99.2639,18.2733 L99.2639,7.2923 C97.9669,6.0033 97.7049,5.8083 97.0119,5.6663 L97.0119,5.1923 L102.0899,5.1923 L111.9629,16.1733 L111.9629,8.8033 C111.9629,6.8163 111.6149,6.0593 109.8219,5.6663 L109.8219,5.1923 L115.5349,5.1923 L115.5349,5.6663 C113.6059,5.7803 113.0889,6.9013 113.0889,8.3563 L113.0889,21.7773" id="N"></path>
                <path d="M128.3477,9.0859 L127.8597,9.0859 C127.2227,7.1789 125.4087,5.6959 123.6717,5.6959 C122.1467,5.6959 120.9047,6.6749 120.9047,7.9089 C120.9047,8.5249 121.2227,9.1429 121.7407,9.6469 C122.5797,10.4569 126.4457,12.4449 127.4847,13.4549 C128.7557,14.6879 129.3297,15.8089 129.3297,17.2369 C129.3297,20.8509 125.9827,21.9999 123.9047,21.9999 C121.8827,21.9999 120.6447,21.3549 119.7777,21.3549 C119.4047,21.3549 119.0857,21.5499 118.9147,21.8889 L118.4217,21.8889 L118.4217,16.9589 L118.9147,16.9589 C119.4047,19.3969 121.0207,21.0759 123.4437,21.0759 C125.2557,21.0759 126.5597,20.0959 126.5597,18.7519 C126.5597,18.2189 126.3297,17.4919 125.6937,16.8749 C124.3937,15.6109 121.4237,14.4059 120.0107,13.0339 C118.9987,12.0549 118.5097,10.8499 118.5097,9.5609 C118.5097,6.7319 120.6997,4.7729 123.8187,4.7729 C124.4577,4.7729 125.0307,4.8849 125.5467,4.9949 C126.0707,5.1099 126.5597,5.2209 126.9927,5.2209 C127.2517,5.2209 127.5387,5.0799 127.8597,4.7729 L128.3477,4.7729 L128.3477,9.0859" id="S"></path>
            </g>
            <path d="M18.1118,29.4902 L-0.0002,29.4902 L11.2598,14.4182 L18.1118,29.4902 Z M17.3223,6.2886 L20.1953,29.4976 L11.6743,13.9276 L17.3223,6.2886 Z M21.9531,0 L26.2441,5.72 L21.9531,29.498 L17.6911,5.703 L21.9531,0 Z M26.6196,6.2534 L32.3236,13.8764 L23.8176,29.4984 L26.6196,6.2534 Z M32.6836,14.3804 L43.9896,29.4984 L25.9346,29.4984 L32.6836,14.3804 Z" id="pyramid" fill="#88BB00"></path>
        </g>
    </g>
</svg>