<svg width="103" height="19" viewBox="0 0 103 19" fill="none" xmlns="http://www.w3.org/2000/svg">
<path fill-rule="evenodd" clip-rule="evenodd" d="M33.6307 11.4196C35.9858 11.5857 37.0683 10.8599 37.0683 8.84579C37.0683 7.28935 36.1769 6.43867 34.4794 6.43867H33.6307V11.4196ZM30.8934 7.76654C30.8934 6.75144 30.6602 6.35732 29.3217 6.10698V5.75296H35.2236C38.6607 5.75296 40.0408 7.10317 40.0408 8.80454C40.0408 10.0482 39.3195 11.191 37.5366 11.6871V11.7301C38.368 11.9181 39.1843 13.4041 39.9484 14.7951C40.4511 15.7102 40.9312 16.5842 41.3782 17.0204C41.6956 17.3337 41.971 17.4569 42.5023 17.54V17.8934H38.915C38.2118 17.0765 37.6341 15.9541 37.1079 14.9318C36.6175 13.9791 36.1719 13.1134 35.7112 12.6627C35.1594 12.1242 34.7344 12.1042 33.6308 12.1042V15.8392C33.6308 16.9178 34.0779 17.375 35.2236 17.54V17.8934H29.3217V17.54C30.3428 17.4569 30.8934 16.9591 30.8934 15.9847V7.76654ZM50.6338 14.6514H50.322C50.2065 13.8339 49.7788 13.449 48.9926 13.449H47.3013V16.2078C47.3013 17.0585 47.6614 17.3621 48.6154 17.3621H49.1729C50.3544 17.3621 50.8806 16.5137 51.1912 15.6144H51.47L51.2902 17.8932H43.9695V17.6193C45.0367 17.3965 45.1846 17.074 45.1846 16.1133V10.0777C45.1846 9.25971 44.9855 8.96985 43.9695 8.77737V8.50527H51.1753V10.5893H50.896C50.5837 9.38746 50.2225 9.03401 49.1576 9.03401H47.3013V12.9179H48.9926C49.7634 12.9179 50.1252 12.5977 50.322 11.7465H50.6338V14.6514ZM58.5293 18.1339C59.9736 18.1339 61.3372 17.8933 62.2548 17.4602V15.4707C62.2548 14.604 62.4835 14.25 63.1911 14.0569V13.7837H59.1539V14.0569C59.8917 14.2024 60.138 14.604 60.138 15.2135V16.609C60.138 17.3783 59.5629 17.6046 58.6926 17.6046C56.9217 17.6046 55.6059 16.432 55.6059 13.4325C55.6059 10.5276 56.6907 8.79412 58.6596 8.79412C60.1051 8.79412 61.385 9.70839 61.9601 11.1365H62.2548V8.50541H61.9601C61.7132 8.74486 61.5323 8.8262 61.2707 8.8262C61.0243 8.8262 60.7725 8.73861 60.4681 8.63267C60.0021 8.47052 59.4125 8.26538 58.5293 8.26538C55.5245 8.26538 53.3094 10.3993 53.3094 13.2715C53.3094 15.6792 55.0649 18.1339 58.5293 18.1339ZM68.4256 16.3034C68.4256 17.1392 68.6412 17.3786 69.6413 17.6192V17.893H65.096V17.6192C66.277 17.3305 66.3077 17.0097 66.3077 16.0966V10.0948C66.3077 9.26016 66.0955 9.01899 65.096 8.77725V8.50572H69.6413V8.77725C68.4916 9.03446 68.4256 9.38733 68.4256 10.2861V16.3034ZM74.1384 13.2871C74.1384 10.3181 75.1731 8.79427 77.06 8.79427C79.1626 8.79427 79.9977 10.6388 79.9977 13.2711C79.9977 16.3697 78.6688 17.6047 77.06 17.6047C74.8932 17.6047 74.1384 15.5516 74.1384 13.2871ZM71.8415 13.2086C71.8415 16.0797 74.0254 18.134 77.0603 18.134C80.114 18.134 82.2973 16.0797 82.2973 13.2086C82.2973 10.3352 80.114 8.26546 77.0603 8.26546C74.0254 8.26546 71.8415 10.3352 71.8415 13.2086ZM93.1162 18.0062H92.8022L85.8899 10.3822V16.1267C85.8899 17.1561 86.2034 17.4448 87.3018 17.619V17.8934H83.9876V17.619C85.0224 17.4603 85.2659 16.9144 85.2516 15.999V9.70848C84.5138 8.97007 84.3648 8.85837 83.9706 8.77702V8.50549H86.8593L92.4757 14.796V10.5741C92.4757 9.4358 92.2777 9.00215 91.2577 8.77702V8.50549H94.5077V8.77702C93.4103 8.84233 93.1162 9.4845 93.1162 10.318V18.0062ZM101.519 10.7359H101.797V8.26523H101.519C101.336 8.4411 101.173 8.52187 101.026 8.52187C100.788 8.52187 100.521 8.46279 100.235 8.39952L100.203 8.3924C99.9097 8.32939 99.5837 8.26523 99.2202 8.26523C97.4459 8.26523 96.2001 9.38745 96.2001 11.008C96.2001 11.7465 96.4783 12.4367 97.054 12.9976C97.4639 13.3984 98.1042 13.7743 98.7314 14.1426C99.334 14.4964 99.9244 14.8431 100.287 15.1979C100.649 15.5513 100.779 15.9678 100.779 16.2731C100.779 17.043 100.038 17.6044 99.0069 17.6044C97.6285 17.6044 96.7092 16.6426 96.4305 15.246H96.15V18.0702H96.4305C96.5277 17.876 96.7092 17.7643 96.9214 17.7643C97.1166 17.7643 97.3448 17.8221 97.6206 17.892C98.0418 17.9988 98.574 18.1338 99.2691 18.1338C100.451 18.1338 102.355 17.4755 102.355 15.4053C102.355 14.5872 102.029 13.9451 101.306 13.2387C100.993 12.9327 100.23 12.4699 99.5107 12.0331C98.8698 11.6442 98.2629 11.2759 98.0381 11.0573C97.7434 10.7686 97.5625 10.4146 97.5625 10.0617C97.5625 9.3548 98.2691 8.79397 99.1366 8.79397C100.125 8.79397 101.157 9.64351 101.519 10.7359Z" fill="#558800"/>
<path fill-rule="evenodd" clip-rule="evenodd" d="M10.0638 4.13243L12.4883 0.866028L14.9293 4.14217L12.4883 17.7634L10.0638 4.13243ZM6.64139 8.84446L11.4887 17.7638L9.85378 4.46844L6.64139 8.84446ZM0 17.7596H10.3033L6.40486 9.12556L0 17.7596ZM13.5491 17.7638L18.3879 8.81524L15.1431 4.44839L13.5491 17.7638ZM25.0242 17.7637H14.7533L18.5926 9.10394L25.0242 17.7637Z" fill="#88BB00"/>
</svg>
