<svg width="403" height="512" viewBox="0 0 403 512" fill="none" xmlns="http://www.w3.org/2000/svg">
<path d="M399 347.485C401 351.485 403 355.485 402 359.485C401 370.485 390 376.485 379 372.485C366 367.485 354 362.485 341 358.485C320 352.485 299 349.485 277 354.485C263 358.485 251 365.485 243 378.485C238 387.485 234 396.485 230 405.485C226 414.485 227 423.485 230 432.485C238 457.485 260 476.485 286 479.485C295 480.485 303 478.485 311 473.485C322 466.485 329 457.485 335 446.485C339 439.485 338 433.485 334 426.485C325 413.485 313 403.485 297 401.485C289 400.485 285 402.485 281 410.485C278 416.485 279 421.485 284 426.485C285 428.485 287 428.485 288 430.485C294 436.485 295 445.485 290 451.485C285 457.485 276 459.485 269 455.485C258 449.485 251 439.485 248 427.485C240 399.485 266 362.485 302 369.485C326 374.485 346 385.485 360 406.485C372 425.485 373 443.485 363 463.485C349 490.485 328 507.485 298 511.485C281 513.485 265 509.485 250 502.485C218 487.485 202 460.485 196 426.485C188 378.485 181 329.485 173 281.485C173 280.485 172 279.485 172 277.485L165 284.485C143 306.485 116 311.485 86 305.485C62 300.485 40 289.485 20 275.485C13 271.485 6 266.485 0 261.485C23 261.485 45 263.485 68 256.485C52 239.485 38 221.485 28 199.485C32 202.485 36 205.485 39 207.485C53 217.485 69 226.485 86 230.485C110 236.485 132 231.485 151 214.485C156 209.485 157 206.485 154 199.485C148 182.485 142 166.485 135 149.485C121 115.485 127 82.4852 144 51.4852C157 27.4852 175 11.4852 202 4.48517C209 2.48517 216 1.48517 223 0.485168H226C231 1.48517 236 1.48517 241 2.48517C258 6.48517 273 13.4852 287 23.4852C292 27.4852 295 32.4852 296 38.4852C302 76.4852 308 113.485 314 151.485C316 165.485 323 178.485 329 191.485C352 243.485 376 295.485 399 347.485ZM180 175.485C207 146.485 238 129.485 278 135.485C278 134.485 279 134.485 279 134.485C274 106.485 270 78.4852 265 51.4852C265 49.4852 263 46.4852 261 45.4852C251 39.4852 240 34.4852 229 33.4852C209 31.4852 193 40.4852 181 55.4852C161 80.4852 154 107.485 166 138.485C170 148.485 174 159.485 178 169.485C179 171.485 179 173.485 180 175.485ZM320 320.485C331 322.485 342 324.485 354 326.485C353 325.485 353 324.485 353 323.485C348 312.485 344 302.485 339 291.485C326 262.485 312 232.485 299 203.485C298 200.485 295 198.485 293 198.485C284 197.485 275 197.485 266 198.485C241 201.485 222 214.485 205 232.485C200 237.485 199 241.485 200 248.485C205 276.485 209 305.485 214 334.485C215 341.485 217 348.485 218 355.485C227 348.485 234 340.485 243 334.485C266 319.485 293 316.485 320 320.485Z" fill="black"/>
</svg>
