<svg height="19" viewBox="0 0 17 19" width="17" xmlns="http://www.w3.org/2000/svg">
<path d="m16.8324753 6.45319124c-.2541851-.25446656-.5557595-.38171744-.9039491-.38171744h-1.285561v-.96432026c0-.44187751-.1575068-.82025272-.4722038-1.1349849-.3148729-.31473219-.693037-.47216864-1.1351256-.47216864h-.6426926c-.4420534 0-.8203583.15743645-1.1350904.47220382-.3148378.314697-.4722039.69310739-.4722039 1.1349849v.96432027h-3.85692921v-.96432027c0-.44187751-.15743645-.82025272-.47220381-1.1349849-.31469701-.31476737-.69303703-.47220382-1.13509045-.47220382h-.64279809c-.44194787 0-.82032308.15743645-1.13509044.47220382-.314697.314697-.47216864.69310739-.47216864 1.1349849v.96432027h-1.28559618c-.34829517 0-.64958808.12725087-.90405464.38171743-.25446657.25443138-.38171744.55586502-.38171744.90405465v12.85712273c0 .3479434.12725087.6493067.38171744.9039139.25443138.2543962.55572429.3816823.90405464.3816823h14.14250782c.3481897 0 .6497992-.1272509.9039491-.3816823.2545018-.2545017.3817878-.5560057.3817878-.9039139v-12.85715791c0-.34829517-.1271805-.64958809-.3815415-.90405465zm-12.1539535 13.76103666h-2.89274972v-2.8929608h2.89274972zm0-3.5356533h-2.89274972v-3.214096h2.89274972zm0-3.8572459h-2.89274972v-2.89271455h2.89274972zm-.22586414-4.59531504c-.06364303-.06364302-.09541177-.13882553-.09541177-.22596968v-2.89274972c0-.08703861.03176874-.1624322.09541177-.22596968.06364302-.06364303.13882553-.09541177.22596968-.09541177h.64279809c.08703861 0 .1624322.03176874.22596969.09541177.06364302.06357266.09548213.13893107.09548213.22596968v2.89274972c0 .08717933-.03197983.16236184-.09548213.22596968-.06357267.06364303-.13882553.0954118-.22596969.0954118h-.64279809c-.08703861 0-.16232666-.03176877-.22596968-.0954118zm4.08300448 11.98821424h-3.21434225v-2.8929608h3.21434225zm0-3.5356533h-3.21434225v-3.214096h3.21434225zm0-3.8572459h-3.21434225v-2.89271455h3.21434225zm3.85728106 7.3928992h-3.21430706v-2.8929608h3.21430706zm0-3.5356533h-3.21430706v-3.214096h3.21430706zm0-3.8572459h-3.21430706v-2.89271455h3.21430706zm-.2261104-4.59531504c-.0635727-.06364302-.0952359-.13882553-.0952359-.22596968v-2.89274972c0-.08703861.0316632-.1624322.0952359-.22596968.0636078-.06364303.1389311-.09541177.2261104-.09541177h.6426926c.0871793 0 .1624322.03176874.2261104.09541177.0636078.06357266.0952358.13893107.0952358.22596968v2.89274972c0 .08717933-.0317687.16236184-.0952358.22596968-.0635727.06364303-.1389311.0954118-.2261104.0954118h-.6426926c-.0871441 0-.1627488-.03176877-.2261104-.0954118zm3.7614471 11.98821424h-2.8928904v-2.8929608h2.8928904zm0-3.5356533h-2.8928904v-3.214096h2.8928904zm0-3.8572459h-2.8928904v-2.89271455h2.8928904z" fill="black" transform="translate(-.5 -3)"/>
</svg>