<svg width="512" height="511" viewBox="0 0 512 511" fill="none" xmlns="http://www.w3.org/2000/svg">
<path d="M404 510C457 495 512 454 512 408C511 357 466 241 368 143C308 84 187 1 103 0H102C56 0 16 55 1 107L0 109V120L8 124C21 130 53 144 84 158C97 164 108 170 118 174L135 182L138 181C142 181 146 179 149 176L198 127L206 131C211 134 260 158 307 205C354 252 377 300 380 305L384 313L335 363C331 367 330 371 330 374V377L332 381C337 393 345 409 353 427L362 447C371 467 380 487 387 503L391 511H402L404 510Z" fill="black"/>
</svg>
