<svg width="449" height="448" viewBox="0 0 449 448" fill="none" xmlns="http://www.w3.org/2000/svg">
<path d="M402.875 45.875C341.875 -15.125 242.875 -15.125 181.875 45.875C151.875 75.875 135.875 113.875 135.875 155.875C135.875 191.875 147.875 224.875 169.875 252.875L148.875 274.875C140.875 269.875 128.875 270.875 121.875 277.875L6.875 392.875C-1.125 400.875 -1.125 414.875 6.875 422.875L25.875 441.875C33.875 449.875 47.875 449.875 55.875 441.875L170.875 326.875C177.875 319.875 178.875 307.875 173.875 299.875L195.875 278.875C256.875 327.875 345.875 323.875 402.875 266.875C432.875 237.875 448.875 197.875 448.875 155.875C448.875 113.875 432.875 75.875 402.875 45.875ZM207.875 70.875C254.875 23.875 330.875 23.875 377.875 70.875C400.875 93.875 412.875 123.875 412.875 155.875C412.875 187.875 400.875 217.875 377.875 240.875C330.875 287.875 254.875 287.875 207.875 240.875C184.875 217.875 171.875 187.875 171.875 155.875C171.875 123.875 184.875 93.875 207.875 70.875Z" fill="black"/>
</svg>
