<svg width="513" height="440" viewBox="0 0 513 440" fill="none" xmlns="http://www.w3.org/2000/svg">
<path d="M282.969 288L282.969 135L230.969 135L230.969 288L282.969 288ZM282.969 373L282.969 322L230.969 322L230.969 373L282.969 373ZM5.969 390C-0.0310024 400 -1.031 413 4.969 424C10.969 435 21.969 440 33.969 440L479.969 440C491.969 440 502.969 435 508.969 424C514.969 413 513.969 401 507.969 390L285.969 16C279.969 5.99998 268.969 -2.13339e-05 256.969 -2.23829e-05C244.969 -2.3432e-05 233.969 5.99998 227.969 16L5.969 390ZM34.969 424C21.969 424 12.969 409 19.969 398L242.969 24C245.969 19 250.969 16 256.969 16C262.969 16 267.969 19 271.969 24L493.969 398C500.969 409 492.969 424 479.969 424L34.969 424Z" fill="black"/>
</svg>
