<svg width="509" height="392" viewBox="0 0 509 392" fill="none" xmlns="http://www.w3.org/2000/svg">
<path d="M193.174 225C219.174 199 246.174 173 273.174 146C318.174 101 363.174 55 408.174 9.99996C415.174 2.99996 423.174 -3.6995e-05 433.174 -3.78693e-05C441.174 -3.85686e-05 448.174 2.99996 454.174 8.99996L499.174 54C512.174 67 511.174 85 499.174 98L498.174 100L216.174 382C209.174 389 201.174 392 191.174 392C182.174 392 175.174 387 169.174 381L7.17386 219C7.17386 219 -5.82614 188 3.17386 177C4.17386 175 6.17386 173 7.17386 172C21.1739 158 36.1739 144 50.1739 130C64.1739 116 83.1738 115 97.1739 129C116.174 148 133.174 167 152.174 185C166.174 199 179.174 211 193.174 225Z" fill="black"/>
</svg>
