<svg width="408" height="371" viewBox="0 0 408 371" version="1.1" xmlns="http://www.w3.org/2000/svg">
<path d="M0.106659 38.2049C0.106659 17.2597 18.43 0.193329 39.94 0.193329H368.167C389.677 0.193329 408 17.2597 408 38.2049V191.803C408 212.748 389.677 230.59 368.167 230.59H341.877V153.791H66.23V230.59H39.94C18.43 230.59 0.106659 212.748 0.106659 191.803V38.2049ZM315.587 179.391V371H92.52V179.391H315.587ZM342.5 93C358.24 93 371 80.2401 371 64.5C371 48.7599 358.24 36 342.5 36C326.76 36 314 48.7599 314 64.5C314 80.2401 326.76 93 342.5 93Z"/>
</svg>
