<svg width="425" height="366" viewBox="0 0 425 366" fill="none" xmlns="http://www.w3.org/2000/svg">
<path d="M4.25 324C-0.749997 332 -0.749998 343 4.25 352C9.25 361 18.25 366 28.25 366L397.25 366C407.25 366 416.25 361 421.25 352C426.25 343 426.25 333 421.25 324L236.25 14C231.25 5.99998 223.25 -1.76375e-05 213.25 -1.85118e-05C203.25 -1.9386e-05 194.25 5.99998 189.25 14L4.25 324ZM234.25 112L234.25 239L191.25 239L191.25 112L234.25 112ZM234.25 267L234.25 310L191.25 310L191.25 267L234.25 267Z" fill="black"/>
</svg>
